<svg width="60" height="50" viewBox="0 0 60 50" fill="none" xmlns="http://www.w3.org/2000/svg">
<path d="M14.5054 49.5164C10.3523 49.4762 6.21321 49.0205 2.14799 48.1562C1.45127 48.0093 0.839964 47.5885 0.447388 46.9855C0.0548114 46.3826 -0.087192 45.6464 0.0523548 44.9375C0.191902 44.2285 0.601672 43.6045 1.1923 43.2013C1.78293 42.7981 2.50648 42.6485 3.2052 42.7852C18.8691 45.9743 30.0525 42.8857 33.2602 34.5205C27.4918 36.9366 21.8551 37.3413 17.0242 35.6281C12.6275 34.0671 9.333 30.8993 7.73965 26.709C5.80487 21.5937 7.02084 16.2198 10.9144 12.6868C15.4368 8.58487 22.2745 8.16795 28.7617 11.5944C31.2284 12.925 33.3974 14.7598 35.1324 16.9834C36.8673 19.207 38.1306 21.7713 38.8428 24.515C50.0891 14.7774 53.9976 2.84574 54.0395 2.71489C54.2659 2.03381 54.7468 1.47047 55.3784 1.14647C56.0101 0.822473 56.7418 0.763781 57.4156 0.983067C58.0894 1.20235 58.6513 1.68203 58.9801 2.31858C59.3089 2.95513 59.3782 3.69752 59.173 4.3855C58.9694 5.03367 54.1534 19.9049 39.4748 31.0027C39.3662 32.6883 39.0317 34.3509 38.4805 35.9446C37.2016 39.6297 34.1437 44.6172 26.8269 47.4532C23.2838 48.8287 19.1686 49.5164 14.5054 49.5164ZM20.124 14.7409C18.0723 14.6983 16.0765 15.4215 14.5144 16.7736C12.334 18.7515 11.6691 21.8068 12.7803 24.7433C13.7866 27.4089 15.925 29.4356 18.8003 30.458C23.1071 31.9795 28.4772 31.1427 34.0269 28.0906C33.4758 23.3252 30.6126 18.7424 26.2818 16.4541C23.8798 15.1882 21.8222 14.7409 20.124 14.7409Z" fill="white"/>
</svg>
