<?xml version="1.0" encoding="utf-8"?>
<!-- Generator: Adobe Illustrator 27.1.1, SVG Export Plug-In . SVG Version: 6.00 Build 0)  -->
<svg version="1.1" id="Calque_1" xmlns="http://www.w3.org/2000/svg" xmlns:xlink="http://www.w3.org/1999/xlink" x="0px" y="0px"
	 viewBox="0 0 1920 1008.8" style="enable-background:new 0 0 1920 1008.8;" xml:space="preserve">
<style type="text/css">
	.st0{fill:#F4F4EE;}
	.st1{fill:none;stroke:#E2EDD1;strokeWidth:10.6764;strokeLinecap:round;strokeLinejoin:round;}
</style>
<path class="st0" d="M831.7,345.2C764.2,582.6,960.5,783.4,973,795.8c5.5,5.4,46.7,43.4,100,76c323.6,198,734.3,39.6,847-8v144.9H0
	V0h1920v402.5c-41.5-62-196.3-276.4-476.3-336c-75.2-16-302.5-64.4-474.7,74.7C937.5,166.6,863.1,234.4,831.7,345.2z"/>
<path class="st1" d="M1920,575.3c-67.3,63.5-142.4,125.7-225.9,184C1224.1,1037.7,836,891.9,727.9,608.4
	c-125.7-329,214-648.9,636.8-427.5c273.3,143.1,408.1,482.9,311.9,764"/>
</svg>
