<?xml version="1.0" encoding="utf-8"?>
<!-- Generator: Adobe Illustrator 27.1.1, SVG Export Plug-In . SVG Version: 6.00 Build 0)  -->
<svg version="1.1" id="Calque_1" xmlns="http://www.w3.org/2000/svg" xmlns:xlink="http://www.w3.org/1999/xlink" x="0px" y="0px"
	 viewBox="0 0 825 609.1" style="enable-background:new 0 0 825 609.1;" xml:space="preserve">
<style type="text/css">
	.st0{fill:#F5F4EE;}
	.st1{fill:#E2EDD1;}
</style>
<path class="st0" d="M176.4,78.4c12.5-10.6,25.8-20.1,39.7-28.5c6.8-4.1,13.7-7.9,20.7-11.5c45.7-23.1,96.8-35,148.8-33.9
	c63.3,0,140,16,229.6,62.3C703,112.2,774.7,182.2,825,264.5V0H0v609.1h825v-80.3c-58,25.6-115.2,44.7-170.7,57.1
	c-2.9,0.6-5.8,1.3-8.6,1.9c-112,23.8-217.2,20.3-309.3-11.5c-8.9-3.1-17.6-6.4-26.1-10c-7.9-3.3-15.7-6.9-23.3-10.6
	c-82.4-40.7-143.6-105.8-175.2-187.2C70.4,261.5,95.2,150.4,176.4,78.4z"/>
<g>
	<path class="st1" d="M673.8,452.2c-1.4-50-12-100.7-31.7-149.5C603.8,207.9,535,130.6,448.4,85.2C379.7,49.1,309,32.8,244,37.8
		c-2.4,0.2-4.8,0.4-7.2,0.7C180.3,44.3,129.5,66,89.6,101.4c-35.9,31.8-60.8,73-72.1,119.1c-11.8,48-8,99.4,10.8,148.7
		c15.6,40.9,39.6,77.1,71.4,107.5c32.3,30.8,71.2,54.3,115.7,69.8c30,10.5,61.7,17.1,94.9,19.8c34.4,2.8,70.4,1.4,107.7-4.3
		c79.7-12.1,162.1-43.2,245.1-92.4c0.1,0,0.2-0.1,0.2-0.2c0.9-0.7,1.9-1.3,2.8-2c-0.5,40-7.1,79.9-20.3,118.5
		c-0.2,0.6-0.3,1.2-0.2,1.8c0.2,1.5,1.2,2.8,2.7,3.2c0.4,0.1,0.9,0.2,1.3,0.2c1.7,0,3.2-1,3.8-2.7c0.3-0.9,0.6-1.8,0.9-2.6
		c13.2-39.7,19.7-81.5,19.6-123.9C727,424,777.6,381.7,825,335.5v-11.4C780.6,367.9,730.3,411.4,673.8,452.2z M658.9,462.8
		C529,539.9,399.6,571.8,287,555.6c-23.8-3.4-46.8-9-69-16.7c-86.8-30.3-151.5-91.6-182.3-172.6C-0.5,271.2,22.2,172,94.9,107.4
		c29.8-26.5,71.2-48.2,121.2-57.4c16.7-3.1,34.3-4.8,52.8-4.8c52.5,0,111.9,13.5,175.8,47.1c136.1,71.4,219.8,217.4,221.5,365.4
		C663.8,459.3,661.3,461.1,658.9,462.8z"/>
</g>
</svg>
