<?xml version="1.0" encoding="utf-8"?>
<!-- Generator: Adobe Illustrator 27.1.1, SVG Export Plug-In . SVG Version: 6.00 Build 0)  -->
<svg version="1.1" id="Calque_1" xmlns="http://www.w3.org/2000/svg" xmlns:xlink="http://www.w3.org/1999/xlink" x="0px" y="0px"
	 viewBox="0 0 825 609.1" style="enable-background:new 0 0 825 609.1;" xml:space="preserve">
<style type="text/css">
	.st0{fill:#F5F4EE;}
	.st1{fill:#E2EDD1;}
</style>
<path class="st0" d="M713.3,368.4c-31.6,81.4-92.8,146.5-175.2,187.2c-7.6,3.8-15.4,7.3-23.3,10.6c-8.5,3.6-17.2,6.9-26.1,10
	c-92.1,31.8-197.3,35.3-309.3,11.5c-2.9-0.6-5.8-1.2-8.6-1.9C115.2,573.5,58,554.4,0,528.8l0,80.3h825V0L0,0l0,264.5
	c50.4-82.3,122-152.3,209.9-197.5C299.5,20.6,376.2,4.6,439.5,4.6c52-1.1,103.1,10.7,148.8,33.9c7,3.5,14,7.4,20.7,11.5
	c13.9,8.4,27.2,17.9,39.7,28.5C729.9,150.4,754.7,261.5,713.3,368.4z"/>
<g>
	<path class="st1" d="M0,324.1l0,11.4C47.5,381.7,98,424,151.1,462c-0.2,42.5,6.3,84.3,19.6,123.9c0.3,0.9,0.6,1.8,0.9,2.6
		c0.6,1.7,2.1,2.7,3.8,2.7c0.4,0,0.9-0.1,1.3-0.2c1.5-0.5,2.5-1.8,2.7-3.2c0.1-0.6,0-1.2-0.2-1.8c-13.2-38.6-19.8-78.5-20.3-118.5
		c0.9,0.7,1.9,1.3,2.8,2c0.1,0.1,0.2,0.1,0.2,0.2c83,49.3,165.5,80.4,245.1,92.4c37.3,5.6,73.3,7.1,107.7,4.3
		c33.2-2.7,64.9-9.3,94.9-19.8c44.5-15.5,83.4-39,115.7-69.8c31.8-30.4,55.9-66.5,71.4-107.5c18.8-49.3,22.5-100.7,10.8-148.7
		c-11.3-46-36.2-87.2-72.1-119.1C695.5,66,644.8,44.3,588.2,38.5c-2.4-0.3-4.8-0.5-7.2-0.7c-65-5.1-135.7,11.3-204.4,47.4
		C290,130.6,221.2,207.9,182.9,302.7c-19.7,48.8-30.3,99.5-31.7,149.5C94.7,411.4,44.4,367.9,0,324.1z M158.8,457.6
		c1.6-147.9,85.3-293.9,221.5-365.4c64-33.6,123.4-47.1,175.8-47.1c18.5,0,36.1,1.7,52.8,4.8c50,9.2,91.3,30.9,121.2,57.4
		c72.8,64.6,95.4,163.8,59.2,258.9c-30.8,81-95.6,142.3-182.3,172.6c-22.1,7.7-45.2,13.3-69,16.7c-112.6,16.2-242-15.7-371.9-92.8
		C163.7,461.1,161.2,459.3,158.8,457.6z"/>
</g>
</svg>
