<svg width="26" height="27" viewBox="0 0 26 27" fill="none" xmlns="http://www.w3.org/2000/svg">
<g clip-path="url(#clip0_1008_3350)">
<path d="M9.62701 19.6559C4.3194 19.6559 0 15.2463 0 9.82793C0 4.40955 4.3194 0 9.62701 0C14.9346 0 19.254 4.40955 19.254 9.82793C19.254 15.2463 14.9346 19.6559 9.62701 19.6559ZM9.62701 3.06371C5.97428 3.06371 3.00107 6.09896 3.00107 9.82793C3.00107 13.5569 5.97428 16.5922 9.62701 16.5922C13.2797 16.5922 16.2529 13.5569 16.2529 9.82793C16.2529 6.09896 13.2797 3.06371 9.62701 3.06371Z" fill="white"/>
<path d="M10.3428 15.0451C7.1917 15.0451 4.62793 12.4278 4.62793 9.21094H6.34283C6.34283 11.4628 8.13704 13.2944 10.3428 13.2944V15.0451Z" fill="white"/>
<path d="M15.1445 13.7492L13.0225 15.9155L23.8784 26.998L26.0005 24.8317L15.1445 13.7492Z" fill="white"/>
</g>
<defs>
<clipPath id="clip0_1008_3350">
<rect width="26" height="27" fill="white"/>
</clipPath>
</defs>
</svg>
